<svg width="30" height="30" viewBox="0 0 30 30" fill="none" xmlns="http://www.w3.org/2000/svg">
<path d="M0 15C0 12.0333 0.879735 9.13319 2.52796 6.66645C4.17618 4.19972 6.51886 2.27713 9.25975 1.14181C12.0006 0.00649941 15.0166 -0.290551 17.9264 0.288228C20.8361 0.867006 23.5088 2.29562 25.6066 4.3934C27.7044 6.49119 29.133 9.16394 29.7118 12.0737C30.2906 14.9834 29.9935 17.9994 28.8582 20.7403C27.7229 23.4812 25.8003 25.8238 23.3336 27.4721C20.8668 29.1203 17.9667 30 15 30C11.0218 30 7.20644 28.4197 4.3934 25.6066C1.58035 22.7936 0 18.9783 0 15V15ZM2 15C2 17.5712 2.76244 20.0846 4.1909 22.2224C5.61935 24.3603 7.64968 26.0265 10.0251 27.0104C12.4006 27.9944 15.0144 28.2518 17.5362 27.7502C20.0579 27.2486 22.3743 26.0105 24.1924 24.1924C26.0105 22.3743 27.2486 20.0579 27.7502 17.5362C28.2518 15.0144 27.9944 12.4006 27.0104 10.0251C26.0265 7.64968 24.3603 5.61936 22.2224 4.1909C20.0846 2.76244 17.5712 2.00001 15 2.00001C11.5522 2.00001 8.24558 3.36965 5.80761 5.80762C3.36964 8.24559 2 11.5522 2 15V15Z" fill="#C70101"/>
<path d="M9.41002 21.87L15 16.29L20.59 21.87C20.7774 22.0562 21.0308 22.1608 21.295 22.1608C21.5592 22.1608 21.8127 22.0562 22 21.87C22.1863 21.6826 22.2908 21.4292 22.2908 21.165C22.2908 20.9008 22.1863 20.6474 22 20.46L15.64 14.1C15.4697 13.9315 15.2397 13.8369 15 13.8369C14.7604 13.8369 14.5304 13.9315 14.36 14.1L8.00002 20.46C7.81377 20.6474 7.70923 20.9008 7.70923 21.165C7.70923 21.4292 7.81377 21.6826 8.00002 21.87V21.87C8.18738 22.0562 8.44084 22.1608 8.70502 22.1608C8.96921 22.1608 9.22266 22.0562 9.41002 21.87V21.87Z" fill="white"/>
<path d="M9.41002 15.0331L15 9.45308L20.59 15.0331C20.7774 15.2193 21.0308 15.3239 21.295 15.3239C21.5592 15.3239 21.8127 15.2193 22 15.0331C22.1863 14.8457 22.2908 14.5923 22.2908 14.3281C22.2908 14.0639 22.1863 13.8104 22 13.6231L15.64 7.26308C15.4697 7.09454 15.2397 7 15 7C14.7604 7 14.5304 7.09454 14.36 7.26308L8.00002 13.6231C7.81377 13.8104 7.70923 14.0639 7.70923 14.3281C7.70923 14.5923 7.81377 14.8457 8.00002 15.0331V15.0331C8.18738 15.2193 8.44084 15.3239 8.70502 15.3239C8.96921 15.3239 9.22266 15.2193 9.41002 15.0331V15.0331Z" fill="white"/>
</svg>
